<svg width="50" height="50" viewBox="0 0 50 50" fill="none" xmlns="http://www.w3.org/2000/svg">
<g clip-path="url(#clip0_202_12)">
<path d="M25 5.46423C36.7782 5.46423 47.5 14.9973 47.5 26.9642C47.5 38.8384 37.8741 48.4642 26 48.4642C14.1259 48.4642 4.5 38.8384 4.5 26.9642C4.5 15.193 13.0266 5.46423 25 5.46423Z" fill="#DA2E2E" stroke="black" stroke-width="3"/>
<path d="M23.5 5.46423C34.033 5.46423 42.5 14.2348 42.5 24.9642C42.5 35.6937 34.033 44.4642 23.5 44.4642C12.967 44.4642 4.5 35.6937 4.5 24.9642C4.5 14.2348 12.967 5.46423 23.5 5.46423Z" fill="#FF3C3C" stroke="black" stroke-width="3"/>
<path d="M12.1553 4.97791C12.9356 2.86953 15.8492 2.80382 16.7627 4.78064L16.8447 4.97791L19.043 10.9203L24.9863 13.1195C27.1626 13.925 27.1626 17.0035 24.9863 17.809L19.043 20.0072L16.8447 25.9506C16.0392 28.1268 12.9608 28.1268 12.1553 25.9506L9.95605 20.0072L4.01367 17.809C1.83741 17.0035 1.83741 13.925 4.01367 13.1195L9.95605 10.9203L12.1553 4.97791Z" fill="#FBCC4A" stroke="black" stroke-width="3"/>
<path d="M45.4481 9.23172C46.3499 9.80639 47.2472 10.5589 47.4546 11.6611C47.6721 12.8178 47.0129 13.721 46.6222 14.2088C46.3993 14.487 46.1351 14.7783 45.9023 15.039C45.6572 15.3135 45.4166 15.5867 45.1821 15.8838C42.5044 19.2765 37.5344 19.6428 34.1123 16.9422C30.6903 14.2416 29.8912 9.32257 32.5684 5.92959C33.0143 5.36465 33.5509 4.6133 34.0056 4.1179C34.4715 3.61044 35.233 2.91916 36.3387 2.90499C37.4107 2.89127 38.3004 3.52238 39.0321 4.23687C39.7382 4.92638 40.5302 5.93035 41.4659 7.27088C43.2333 8.01882 44.538 8.65171 45.4481 9.23172Z" fill="#EA8F3F" stroke="black" stroke-width="3"/>
<path d="M43.6396 4.87038C45.1984 6.10048 46.4224 7.57201 47.1049 9.01701C47.7434 10.3689 48.1044 12.1816 47.0045 13.5755C45.9045 14.9694 44.0576 15.0395 42.5942 14.7328C41.0302 14.4049 39.3144 13.5565 37.7557 12.3264C36.197 11.0963 34.9736 9.62528 34.2911 8.18033C33.6526 6.82834 33.2907 5.01529 34.3908 3.62125C35.4909 2.22731 37.3385 2.15774 38.8018 2.46454C40.3658 2.79246 42.081 3.64039 43.6396 4.87038Z" fill="#FB9D4A" stroke="black" stroke-width="3"/>
<path d="M46 26.9642C46 38.0099 37.0457 46.9642 26 46.9642C14.9543 46.9642 6 38.0099 6 26.9642C6 15.9185 13.9543 6.96423 25 6.96423C36.0457 6.96423 46 15.9185 46 26.9642Z" fill="#DA2E2E"/>
<ellipse cx="23.5" cy="24.9642" rx="17.5" ry="18" fill="#FF3C3C"/>
<path d="M13.5621 5.49874C13.8843 4.62812 15.1157 4.62812 15.4379 5.49874L17.7166 11.6569C17.8178 11.9306 18.0337 12.1464 18.3074 12.2477L24.4655 14.5264C25.3361 14.8485 25.3361 16.0799 24.4655 16.4021L18.3074 18.6808C18.0337 18.7821 17.8178 18.9979 17.7166 19.2716L15.4379 25.4297C15.1157 26.3003 13.8843 26.3003 13.5621 25.4297L11.2834 19.2716C11.1822 18.9979 10.9663 18.7821 10.6926 18.6808L4.5345 16.4021C3.66389 16.0799 3.66389 14.8485 4.5345 14.5264L10.6926 12.2477C10.9663 12.1464 11.1822 11.9306 11.2834 11.6569L13.5621 5.49874Z" fill="#FBCC4A"/>
<path d="M44.0052 14.9544C41.8876 17.6377 37.8744 18.0006 35.0415 15.7649C32.2085 13.5292 31.6286 9.54164 33.7461 6.85834C35.8637 4.17505 36.3476 2.45711 40.4837 8.48387C48.3299 11.7522 46.1227 12.2711 44.0052 14.9544Z" fill="#EA8F3F"/>
<ellipse cx="40.6978" cy="8.59863" rx="6.53442" ry="3.24916" transform="rotate(38.2792 40.6978 8.59863)" fill="#FB9D4A"/>
</g>
<defs>
<clipPath id="clip0_202_12">
<rect width="50" height="50" fill="white"/>
</clipPath>
</defs>
</svg>
